<?xml version="1.0" encoding="utf-8"?>
<!-- Generator: Adobe Illustrator 27.5.0, SVG Export Plug-In . SVG Version: 6.00 Build 0)  -->
<svg version="1.1" id="Layer_1" xmlns="http://www.w3.org/2000/svg" xmlns:xlink="http://www.w3.org/1999/xlink" x="0px" y="0px"
	 viewBox="0 0 48 48" style="enable-background:new 0 0 48 48;" xml:space="preserve">
<style type="text/css">
	.st0{fill:none;}
	.st1{fill:#D1CEC4;}
</style>
<path class="st0" d="M6,2h37v37H6V2z"/>
<path class="st1" d="M23.1,4.1C23.6,4.1,24.2,4,24.8,4C35.2,4.4,43.5,12.8,44,23.2v15.7c0,2.8-2.3,5.1-5.2,5.1
	c-2.6-0.4-4.6-2.5-4.8-5.1V23.2c-0.4-5.5-5.2-9.6-10.7-9.2c-0.1,0-0.1,0-0.2,0"/>
<path class="st1" d="M44,39c0,2.8-2.2,5-5,5c-2.8,0-5-2.2-5-5c0-2.8,2.2-5,5-5C41.7,34,44,36.3,44,39z"/>
<path class="st1" d="M23.4,43.8c2.8,0,5.1-2.2,5.2-5.1c0,0,0,0,0,0c-0.1-2.8-2.4-4.9-5.1-4.8c0,0-0.1,0-0.1,0
	c-5.5-0.4-9.6-5.2-9.2-10.6v-0.1c0.4-4.9,4.3-8.8,9.2-9.2c2.7,0.1,5.1-2,5.2-4.8c0,0,0-0.1,0-0.1c0-2.8-2.3-5.1-5.2-5.1c0,0,0,0,0,0
	H23C12.4,4.6,4.1,13.3,4,23.9V24c0,12.5,10.9,19.9,19.1,19.9L23.4,43.8L23.4,43.8z"/>
</svg>
