<?xml version="1.0" encoding="utf-8"?>
<!-- Generator: Adobe Illustrator 27.5.0, SVG Export Plug-In . SVG Version: 6.00 Build 0)  -->
<svg version="1.1" id="Layer_1" xmlns="http://www.w3.org/2000/svg" xmlns:xlink="http://www.w3.org/1999/xlink" x="0px" y="0px"
	 viewBox="0 0 2113 2500" style="enable-background:new 0 0 2113 2500;" xml:space="preserve">
<style type="text/css">
	.st0{fill:#D1CEC4;}
</style>
<path class="st0" d="M1095.9,1634.7c-137.5,0.2-264.2-74.5-330.6-194.9c-3.3-5.9-6.5-12-9.4-18.1c-90.8-187.5-12.4-413.2,175.2-504
	c156.8-75.9,345.2-34.6,455.9,100c5,6,9.4,12.4,14.5,18.9c2.3,3.1,4.5,6.2,6.6,9.4l331.3-190.8c-8.1-13-16.5-25.6-25.3-37.8
	c-4.6-6.5-9.4-12.8-14-18.9c-254.3-330.3-728.2-392-1058.5-137.7c-290.2,223.4-378.2,622.8-208.7,947.4c3.2,6,6.5,12,9.4,17.9
	c205.6,362.7,666.2,490.1,1028.9,284.5c107.1-60.7,197.7-146.6,263.9-250.3l-323.9-195.8C1341.5,1570.8,1222.9,1634.7,1095.9,1634.7
	L1095.9,1634.7z"/>
</svg>
