<?xml version="1.0" encoding="utf-8"?>
<!-- Generator: Adobe Illustrator 27.5.0, SVG Export Plug-In . SVG Version: 6.00 Build 0)  -->
<svg version="1.1" id="Layer_1" xmlns="http://www.w3.org/2000/svg" xmlns:xlink="http://www.w3.org/1999/xlink" x="0px" y="0px"
	 viewBox="0 0 24 24" style="enable-background:new 0 0 24 24;" xml:space="preserve">
<style type="text/css">
	.st0{fill:#D1CEC4;}
</style>
<path class="st0" d="M20.5,19.4l-2.2-14c0-0.3-0.3-0.5-0.5-0.5c-0.1,0-0.3,0.1-0.4,0.2L3.5,19.4l7.7,4.4c0.2,0.1,0.5,0.2,0.8,0.2
	c0.3,0,0.6-0.1,0.8-0.2L20.5,19.4z M7.4,0.3C7.3,0.1,7.1,0,6.9,0C6.6,0,6.4,0.2,6.4,0.5L4.1,15.7L9.9,5.1L7.4,0.3L7.4,0.3z
	 M14.3,7.1l-1.8-3.5c-0.1-0.2-0.3-0.3-0.5-0.3s-0.4,0.1-0.5,0.3l0,0L3.7,18L14.3,7.1z"/>
</svg>
